<svg fill="none" height="512" viewBox="0 0 30720 512" width="30720" xmlns="http://www.w3.org/2000/svg"><g fill="#fff"><path d="m261.157 208.7 1.386-.611 125.31-55.238c4.282-1.921 2.911-9.325-1.782-9.325h-1.189-258.515c-4.693 0-6.064 7.404-1.782 9.325l2.639 1.163 124.057 54.686c3.141 1.409 6.735 1.409 9.876 0z"/><path d="m265.813 234.051.248 126.934c.133 8.553 8.65 10.1 13.534 2.979l117.783-182.483c3.333-5.48-1.955-11.717-9.73-8.041l-117.362 52.885c-3.693 1.845-4.473 3.929-4.473 7.726z"/><path d="m246.187 234.051-.248 126.934c-.133 8.553-8.65 10.1-13.534 2.979l-85.633-131.649-2.207-3.419-1.874-2.904-.055-.085-28.014-44.426c-3.333-5.48 1.955-11.717 9.73-8.041l117.362 52.885c.22.11.43.221.63.333 1.506.844 2.45 1.752 3.025 2.861.63 1.214.818 2.666.818 4.532z"/><path d="m771.708 208.583 1.336-.723 126.771-54.766c4.288-1.908 2.927-9.328-1.76-9.341l-1.352-.017-257.215-.401c-4.668-.006-6.206 7.237-2.038 9.197l2.748 1.255 121.406 54.662c3.115 1.515 6.949 1.532 10.104.134z"/><path d="m775.75 233.839 2.069 127.184c.203 8.503 8.739 10.051 13.623 2.93l117.833-182.29c3.333-5.48-1.955-11.717-9.73-8.041l-119.322 52.491c-3.693 1.845-4.473 3.929-4.473 7.726z"/><path d="m756.455 233.838 1.467 127.243c-.132 8.455-8.537 9.877-13.426 2.776 0 0-85.362-131.572-85.389-131.65-.039-.114-2.076-3.438-2.076-3.438l-1.976-3.284-.149-.095-27.517-44.407c-3.257-5.564 2.044-11.719 9.695-8.112l114.86 52.861c.215.107.296.295.491.404 1.472.825 2.539 2.158 3.101 3.241.615 1.187.919 2.638.919 4.461z"/><path d="m1279.33 208.231 1.19-1.061 131.18-53.344c4.31-1.866 2.98-9.337-1.7-9.389l-1.84-.067-253.29-1.611c-4.59-.025-6.63 6.734-2.81 8.809l3.08 1.532 113.4 54.594c3.04 1.832 7.6 1.9 10.79.537z"/><path d="m1281.52 233.2 7.57 127.94c.41 8.352 9.01 9.902 13.89 2.781l117.98-181.708c3.34-5.48-1.95-11.717-9.73-8.041l-125.23 51.302c-3.7 1.845-4.48 3.929-4.48 7.726z"/><path d="m1263.23 233.199 6.64 128.172c-.13 8.161-8.2 9.205-13.1 2.167 0 0-84.54-131.343-84.65-131.653-.16-.458-1.68-3.498-1.68-3.498l-2.29-4.43-.43-.124-26.02-44.352c-3.02-5.817 2.32-11.723 9.59-8.327l107.31 52.79c.2.1-.11.518.07.62 1.37.767 2.81 3.381 3.33 4.388.57 1.103 1.23 2.552 1.23 4.247z"/><path d="m1773.86 206.826.58-2.411 148.8-47.66c4.39-1.704 3.17-9.374-1.43-9.584l-3.8-.266-237.62-6.447c-4.28-.101-8.34 4.723-5.89 7.262l4.39 2.639 81.42 54.316c2.73 3.103 10.19 3.376 13.55 2.151z"/><path d="m1768.64 230.647 29.53 130.96c1.26 7.75 10.08 9.309 14.96 2.188l118.59-179.385c3.33-5.48-1.96-11.717-9.73-8.041l-148.88 46.552c-3.69 1.845-4.47 3.929-4.47 7.726z"/><path d="m1754.34 230.644 27.32 131.887c-.1 6.985-6.83 6.518-11.79-.27 0 0-81.28-130.426-81.72-131.665-.62-1.834-.09-3.735-.09-3.735l-3.52-9.009-1.56-.243-20.03-44.128c-2.11-6.83 3.39-11.743 9.17-9.187l77.13 52.505c.14.069-1.72 1.41-1.6 1.481.96.535 3.88 8.27 4.24 8.973.4.768 2.45 2.209 2.45 3.391z"/><path d="m2273.11 205.801.14-3.398 161.66-43.511c4.44-1.586 3.31-9.401-1.25-9.726l-5.22-.411-226.18-9.977c-4.06-.156-9.59 3.256-8.14 6.133l5.35 3.447 58.08 54.113c2.51 4.03 12.08 4.453 15.56 3.33z"/><path d="m2262.48 228.784 45.57 133.164c1.87 7.31 10.85 8.875 15.73 1.754l119.03-177.689c3.33-5.48-1.96-11.717-9.73-8.041l-166.12 43.085c-3.7 1.845-4.48 3.93-4.48 7.727z"/><path d="m2251.1 228.778 42.41 134.599c-.09 6.126-5.83 4.558-10.84-2.049 0 0-78.89-129.756-79.57-131.673-.97-2.838 1.07-3.908 1.07-3.908l-4.42-12.352-2.38-.328-15.67-43.965c-1.44-7.569 4.18-11.757 8.87-9.814l55.1 52.296c.09.047-2.9 2.061-2.82 2.11.65.365 4.66 11.838 4.91 12.318.27.525 3.34 1.959 3.34 2.766z"/><path d="m2770.62 204.636-.35-4.517 176.26-38.8c4.5-1.451 3.47-9.431-1.03-9.887l-6.85-.576-213.18-13.986c-3.81-.218-11.01 1.59-10.7 4.852l6.44 4.365 31.58 53.882c2.25 5.083 14.22 5.675 17.83 4.667z"/><path d="m2753.86 226.667 63.77 135.668c2.57 6.81 11.74 8.383 16.62 1.262l119.52-175.763c3.33-5.48-1.95-11.717-9.73-8.041l-185.7 39.147c-3.7 1.845-4.48 3.93-4.48 7.727z"/><path d="m2745.79 226.661 59.55 137.678c-.08 5.151-4.7 2.331-9.75-4.069 0 0-76.19-128.996-77.15-131.682-1.35-3.979 2.39-4.106 2.39-4.106l-5.44-16.146-3.32-.426-10.71-43.781c-.68-8.408 5.08-11.772 8.52-10.526l30.09 52.06c.05.022-4.24 2.801-4.2 2.823.31.173 5.55 15.891 5.67 16.118.12.248 4.35 1.675 4.35 2.057z"/><path d="m3269.61 203.59-.8-5.522 189.37-34.569c4.56-1.329 3.62-9.458-.83-10.031l-8.31-.725-201.51-17.586c-3.58-.274-12.28.093-12.99 3.7l7.42 5.189 7.77 53.675c2.02 6.029 16.15 6.774 19.88 5.869z"/><path d="m3247.34 224.766 80.12 137.916c3.2 6.361 12.53 7.941 17.42.82l119.96-174.033c3.34-5.48-1.95-11.717-9.73-8.041l-203.3 35.611c-3.69 1.845-4.47 3.93-4.47 7.727z"/><path d="m3242.24 224.758 74.95 140.444c-.07 4.276-3.69.331-8.78-5.883 0 0-73.76-128.313-74.96-131.691-1.7-5.003 3.57-4.282 3.57-4.282l-6.36-19.556-4.16-.514-6.26-43.614c.01-9.162 5.89-11.787 8.22-11.166l7.62 51.847-5.45 3.465 6.35 19.53z"/><path d="m3776.71 203.997-3.37-5.397 196.7-34.214c4.59-1.279 5.24-9.692-1.58-11.173l-5 .565-198.16-19.215c-3.49-.297-15.16.514-15.64 2.919l9.43 4.9-3.74 55.028c1.15 4.637 12.49 7.336 21.36 6.587z"/><path d="m3754.58 224.278 81.66 138.66c3.37 6.246 14.49 7.661 19.38.54l120.98-173.588c3.34-5.48-1.95-11.717-9.73-8.041l-207.82 34.703c-3.69 1.845-4.47 3.929-4.47 7.726z"/><path d="m3749.95 225.177 79.2 139.702c-.07 4.276-2.73.289-7.83-5.925 0 0-77.61-129.03-78.41-131.282-1.14-3.335 2.13-4.007 2.13-4.007l-2.44-22.559-3.01-.552 2.45-46.306c.34-7.329 4.88-9.87 7.12-9.583l-2.46 54.244-4.11 2.218 2.42 22.509z"/><path d="m4283.82 204.405-5.95-5.271 204.03-33.859c4.61-1.231 6.87-9.928-2.34-12.316l-1.69 1.856-194.81-20.844c-3.4-.32-18.04.935-18.28 2.137l11.43 4.611-15.24 56.38c.27 3.247 8.82 7.9 22.85 7.306z"/><path d="m4261.82 223.79 83.21 139.404c3.52 6.131 16.44 7.381 21.33.26l122.01-173.143c3.33-5.48-1.96-11.717-9.73-8.041l-212.35 33.794c-3.69 1.845-4.47 3.929-4.47 7.726z"/><path d="m4257.65 225.596 83.46 138.959c-.07 4.276-1.78.248-6.87-5.966 0 0-81.48-129.747-81.88-130.873-.56-1.668.71-3.733.71-3.733l1.48-25.561-1.87-.59 11.15-48.999c.67-5.495 3.88-7.953 6.04-7.999l-12.54 56.64-2.78.971-1.51 25.488z"/><path d="m4790.92 204.812-8.52-5.146 211.36-33.504c4.64-1.181 8.49-10.162-3.09-13.458l1.62 3.146-191.46-22.473c-3.31-.343-20.92 1.356-20.92 1.356l13.42 4.322-26.74 57.733c-.6 1.855 5.16 8.462 24.33 8.024z"/><path d="m4769.06 223.301 84.75 140.148c3.69 6.015 18.4 7.1 23.28-.021l123.04-172.697c3.33-5.48-1.96-11.717-9.73-8.041l-216.86 32.885c-3.7 1.845-4.48 3.929-4.48 7.726z"/><path d="m5263.55 198.244-4.44-8.979 252.68-11.544c4.86-.436 7.13-8.054-2.64-13.873l-1.04 4.241-151.32-36.213c-2.39-.498-22.49-2.798-42.01-.913 21.19 4.115 21.74 7.918 21.74 7.918l-88.6 45.823c-3.1 1.757 6.16 13.619 15.63 13.54z"/><path d="m5248.04 213.301 112.93 149.815c6.47 6.015 20.88 11.734 33.39.312l122.95-160.03c3.51-5.48-2.05-11.717-10.23-8.041l-254.34 10.218c-3.88 1.845-4.7 3.929-4.7 7.726z"/><path d="m5755.87 194.959-2.41-10.895 273.34-.564c4.98-.064 6.45-7-2.4-14.08l-2.38 4.788-131.25-43.083c-1.92-.576-23.27-4.875-52.56-2.047 31.79 6.172 25.9 9.716 25.9 9.716l-119.53 39.868c-4.34 1.708 6.66 16.197 11.29 16.297z"/><path d="m5743.52 208.301 127.03 154.648c7.87 6.015 22.12 14.051 38.45.479l122.91-153.697c3.59-5.48-2.11-11.717-10.49-8.041l-273.08-1.115c-3.98 1.845-4.82 3.929-4.82 7.726z"/><path d="m6267.02 184.948.66-8.325 251.65 12.912c8.69 1.089 10.59-5.16 5.7-11.705-2.14.533-6.83 3.105-6.83 3.105l-94.35-47.652c-2.49-3.375-23.14-6.741-47.44-5.166 27.3 6.133 25.2 10.399 25.2 10.399l-141.21 32.348c-4.34 1.763 3.26 11.917 6.62 14.084z"/><path d="m6257.67 201.468 126.97 161.065c6.47 6.015 19.71 11.651 32.23.229l105.74-145.364c3.5-5.48-.83-11.888-9.24-9.791l-251-13.865c-3.88 1.845-4.7 3.929-4.7 7.726z"/><path d="m6778.16 174.937 3.74-5.754 229.97 26.387c12.39 2.242 14.71-3.32 13.79-9.33-4.28 1.067-11.27 1.422-11.27 1.422l-57.47-52.221c-3.05-6.174-23-8.607-42.31-8.284 22.81 6.093 24.5 11.081 24.5 11.081l-162.89 24.829c-4.35 1.818-.14 7.636 1.94 11.87z"/><path d="m6771.81 194.635 126.91 167.482c5.09 6.015 17.31 9.25 26.01-.021l88.58-137.031c3.42-5.48.46-12.059-7.99-11.541l-228.93-26.615c-3.78 1.845-4.58 3.929-4.58 7.726z"/><path d="m7289.31 164.926 6.81-3.184 208.28 39.863c16.1 3.395 18.85-1.48 21.89-6.955-6.41 1.6-15.72-.262-15.72-.262l-20.58-56.79c-3.61-8.973-22.86-10.473-37.18-11.402 18.32 6.054 23.8 11.764 23.8 11.764l-184.58 17.309c-4.34 1.873-3.53 3.356-2.72 9.657z"/><path d="m7285.95 187.801 126.86 173.898c3.69 6.015 14.9 6.85 19.79-.271l71.41-128.697c3.33-5.48 1.74-12.231-6.73-13.291l-206.86-39.365c-3.69 1.845-4.47 3.929-4.47 7.726z"/><path d="m7510.18 232.265-72.95 132.717c.4.768 4.02-.107 6.28-3.508l70.21-127.464.73-3.459 2.1-34.688.73-.628-14.48-40.316c-1.01-3.662-2.88-6.037-4.96-6.416l17.25 47.661 1.44-.275-2.05 34.591z"/><path d="m7804.14 160.277 6.11-2.185 184.46 45.379c10.99 2.112 13.91-.159 21.99-5.818-5.76-.403-13.13-1.34-12.31-2.511l11.26-54.408c-2.77-4.807-11.52-7.296-19.67-7.289 9.16 3.027 9.62 5.956 9.62 5.956l-199.18 12.114c-4.34 1.886-3.36 4.235-2.28 8.762z"/><path d="m7799.39 184 123 177.981c3.68 6.015 13.36 5.731 18.24-1.39l50.98-127.065c2.66-5.676-.24-12.002-7.94-13.166l-179.81-44.086c-3.69 1.845-4.47 3.929-4.47 7.726z"/><path d="m8005.53 228.682-55.24 132.747c.27 4.66 1.84 5.372 5.41.111l74.12-149.574 1.18-3.613 1.74-18.945.38-.361-5.38-24.348c1.16-4.571-1.03-10.509-4.35-10.478l-13.73 52.548.69-.063-1.86 19.202z"/><path d="m8318.98 155.629 5.4-1.187 160.65 50.895c5.88.829 8.97 1.163 22.09-4.68-5.12-2.407-10.55-2.419-8.91-4.76l43.1-52.026c-1.92-.641-.18-4.119-2.16-3.176l-4.54.147-213.79 6.919c-4.34 1.899-3.19 5.114-1.84 7.868z"/><path d="m8312.84 180.202 119.12 182.063c3.69 6.015 11.83 4.612 16.71-2.509l30.54-125.432c1.99-5.873-2.21-11.773-9.14-13.041l-152.76-48.807c-3.69 1.845-4.47 3.929-4.47 7.726z"/><path d="m8500.88 225.102-37.53 132.776c.14 8.553-.35 10.851 4.54 3.73l78.02-171.684 1.63-3.767 1.39-3.202.04-.093 3.7-8.38c3.33-5.48.83-14.981-3.73-14.541l-44.71 57.435-.07.15-1.65 3.812z"/><path d="m8967.91 208.325 8.27-4.417 115.67-51.057c2.86-1.282 3.2-5.004 1.72-7.34-.74-1.165-1.94-1.985-3.5-1.985l-248.33.5c-4.7 0-9.57 6.404-5.29 8.325l5.22 1.757 113.61 54.592c3.14 1.409 7.22 1.05 12.63-.375z"/><path d="m8967.85 233.942-1.81 126.813c.13 8.527 9.18 10.325 12.9 3.204l107.58-182.384c2.98-5.48-1.75-11.718-8.71-8.041l-105.95 52.681c-3.31 1.845-4.01 3.93-4.01 7.727z"/><path d="m8954.86 233.891 1.01 126.841c-.1 8.553-8.65 10.35-12.37 3.229l-98.76-158.587-1.96-3.428-1.66-2.913-.05-.085-9.57-16.722c-2.98-5.48 1.75-11.717 8.71-8.041l110.67 51.98c.2.107.38.219.55.328 1.31.821 2.18 1.808 2.68 2.887.55 1.181.75 2.695.75 4.511z"/><path d="m9445.39 206.582c-4.44-1.42-.26-4.593-.26-4.593l157.89-43.814c2.95-1.085 3.41-4.902 2.04-7.408-.69-1.251-1.83-2.175-3.35-2.27l-229.08-8.906c-4.13-.137-10.54 3.811-12.01 7.075 2.86-.241 9.27 2.657 9.27 2.657l59.36 54.137c1.65 1.588 4.75 4.79 16.14 3.122z"/><path d="m9439.83 228.739 34.96 132.625c1.11 7.83 10.28 9.569 14.32 2.448l112.07-179.696c3.08-5.48-1.8-11.717-8.99-8.041l-148.23 44.938c-3.41 1.845-4.13 3.929-4.13 7.726z"/><path d="m9426.55 229.324 37.36 133.654c-.09 6.414-6.18 5.341-10.58-1.327 0 0-85.64-143.461-86.23-145.15-.85-2.502.8-3.855.8-3.855l-4.01-11.235-2.11-.299-6.41-29.918c-1.49-7.321 3.82-11.752 8.46-9.604l57.65 51.664c.1.053-2.53 1.842-2.45 1.896.66.411 4.26 10.669 4.51 11.209.28.59 3.01 2.057 3.01 2.965z"/><path d="m9922.86 204.84c-8.86-2.84-8.78-4.77-8.78-4.77l200.12-36.571c3-.887 3.6-4.799 2.4-7.476-.7-1.336-1.8-2.364-3.2-2.555l-209.87-18.311c-3.58-.274-11.53 1.218-18.74 5.825 5.71-.482 13.31 3.557 13.31 3.557l5.13 53.682c.14 1.766 2.27 8.529 19.63 6.619z"/><path d="m9911.8 223.536 71.73 138.437c2.11 7.133 11.38 8.812 15.75 1.691l116.62-177.008c3.1-5.48-1.9-11.716-9.3-8.04l-190.53 37.194c-3.52 1.845-4.27 3.929-4.27 7.726z"/><path d="m9898.24 224.759 73.7 140.466c-.07 4.276-3.69.332-8.78-5.882 0 0-72.51-128.336-73.71-131.714-1.7-5.003 3.57-4.282 3.57-4.282l-6.36-19.556-4.16-.514-3.26-43.114c.01-9.162 5.89-11.787 8.22-11.166l4.62 51.347-5.45 3.465 6.35 19.53z"/><path d="m10404.2 204.312-3.1-4.676 224.3-33.474c3.2-.788 3.9-4.75 2.6-7.512-.6-1.378-1.7-2.457-3.2-2.696l-199.8-22.577c-3.4-.343-8.1.248-18.5 3.356 8.6.142 10.1 4.029 10.1 4.029l-26.2 56.276c-.6 1.855 3.6 7.962 13.8 7.274z"/><path d="m10392 223.301 92.7 139.648c3.8 6.015 13.7 7.6 18.7.479l128.6-172.697c3.5-5.48-2-11.717-10.1-8.041l-225.3 32.885c-3.8 1.845-4.6 3.929-4.6 7.726z"/><path d="m10905.1 201.397c-.8-1.038-2.2-5.698-2.2-5.698l234.5-25.202c3.3-.602 4-4.307 2.8-6.955-.5-1.322-1.6-2.379-3.1-2.659l-181.7-28.506c-3.1-.402-13.7-1.189-26.9 2.427 8 .352 16.3 4.344 16.3 4.344l-51.2 53.293c-1.6 1.818.8 8.434 11.5 8.956z"/><path d="m10893.9 219.551 101.3 143.398c4.8 6.015 15.7 9.213 23.6.479l127.2-167.947c3.5-5.48-2.1-11.717-10.2-8.041l-237.2 24.385c-3.9 1.845-4.7 3.929-4.7 7.726z"/><path d="m11405.9 198.482c-1.4-2.076-1.2-6.72-1.2-6.72l244.8-16.931c3.2-.416 4.1-3.864 3-6.398-.6-1.265-1.6-2.301-3-2.621l-163.7-34.436c-2.7-.46-19.3-2.626-35.4 1.498 7.4.563 22.6 4.66 22.6 4.66l-76.3 50.31c-2.4 1.781-1.8 8.906 9.2 10.638z"/><path d="m11395.8 215.801 109.8 147.148c5.9 6.015 17.9 10.826 28.6.479l125.8-163.197c3.5-5.48-2.1-11.717-10.3-8.041l-249.2 15.885c-3.9 1.845-4.7 3.929-4.7 7.726z"/><path d="m11906.8 195.567c-2.2-3.114-.3-7.742-.3-7.742l255-8.659c3.3-.229 4.2-3.42 3.2-5.841-.5-1.208-1.5-2.223-2.9-2.584l-145.7-40.365c-2.3-.518-24.8-4.063-43.8.57 6.8.773 28.9 4.975 28.9 4.975l-101.3 47.326c-3.4 1.745-4.6 9.378 6.9 12.32z"/><path d="m11897.6 212.051 118.5 150.898c6.8 6.015 20 12.438 33.5.479l124.3-158.447c3.6-5.48-2.1-11.717-10.4-8.041l-261.1 7.385c-3.9 1.845-4.8 3.929-4.8 7.726z"/><path d="m12407.2 185.035c-1.2-4.285 4.5-8.395 4.5-8.395l247.3 12.895c3.6.259 8.7-3.874 9-7.486-2.2.703-5.8-.386-6.8-1.032l-91.4-48.484c-2.2-2-24.7-7.866-44.8-4.29 9 2.924 29.2 7.112 29.2 7.112l-147.1 35.418c-4.4 1.763-8.7 10.06.1 14.262z"/><path d="m12401.7 201.468 128.6 161.398c6.5 6.015 18.1 11.151 30.7-.271l107.5-145.197c3.5-5.48-.8-11.888-9.3-9.791l-252.8-13.865c-3.9 1.845-4.7 3.929-4.7 7.726z"/><path d="m12918.7 177.418c.6-4.418 8.4-8.026 8.4-8.026l229.4 26.178c3.8.561 13.1-4.771 14.5-9.688-3.9 2.556-10.2 1.372-10.8.482l-55.2-50.674c-2.3-3.424-19-10.232-37.3-8.221 11.8 4.864 23.4 8.933 23.4 8.933l-167.9 26.494c-4.5 1.818-10.1 10.27-4.5 14.522z"/><path d="m12915.8 194.634 130.3 168.148c5.1 6.015 14.1 8.251 22.9-1.021l92-136.697c3.5-5.48.5-12.059-8.1-11.541l-232.4-26.615c-3.9 1.845-4.7 3.929-4.7 7.726z"/><path d="m13430.3 169.801c2.2-4.551 12.2-7.657 12.2-7.657l211.5 39.461c4.1.863 17.4-5.667 20.1-11.89-5.7 4.41-14.6 3.131-14.8 1.997l-19.1-52.864c-2.5-4.848-13.2-12.598-29.7-12.152 14.5 6.804 17.5 10.754 17.5 10.754l-188.8 17.569c-4.5 1.873-11.5 10.481-8.9 14.782z"/><path d="m13429.9 187.801 131.9 174.898c3.8 6.015 10.2 5.35 15.2-1.771l76.6-128.197c3.4-5.48 1.8-12.231-6.9-13.291l-212.2-39.365c-3.8 1.845-4.6 3.929-4.6 7.726z"/><path d="m13654.2 232.265-76.2 132.217c.4.768 4-.107 6.3-3.508l73.4-126.964.8-3.459 2-34.688.8-.628-14.5-40.316c-1-3.662-2.9-6.037-5-6.416l17.3 47.661 1.4-.275-2 34.591z"/><path d="m13943.9 162.84c1.2-2.275 12.5-5.291 12.5-5.291l185.1 45.922c4 .708 15.6-2.794 17.6-6.692-2.5 1.813-10.7.363-10.4-.594l22.8-56.075c-2.2-2.745-6.7-8.359-15.9-7.664 7.2 3.402 7.1 5.442 7.1 5.442l-210.2 11.752c-4.4 1.886-10.1 10.11-8.6 13.2z"/><path d="m13943.4 184.001 125.5 178.481c3.7 6.015 10.4 4.981 15.3-2.14l54.2-126.815c2.7-5.676-.2-12.002-8-13.166l-182.5-44.086c-3.7 1.845-4.5 3.929-4.5 7.726z"/><path d="m14149.5 228.683-58.2 133.497c.3 4.66 5 4.497 8.5-.764l82.8-150.699 1.1-3.613 1.8-18.945.4-.361-5.4-24.348c1.1-4.571-1-10.509-4.4-10.478l-22.4 53.798.6-.063-1.8 19.202z"/><path d="m14643.5 204.81-3.9-6.49 59.9-51.404c4.3-1.876 2.7-7.335-2-7.379l-229.1 5.755c-4.6-.015-13.1 11.521-9.1 12.958l9-5.904 155.6 51.263c2.9 1.437 16.4 2.572 19.6 1.201z"/><path d="m14647.2 223.7-42.8 135.145c.4 8.411 7.2 6.21 12.1-.911l98.1-183.686c3.3-5.48 2.3-18.217-5.5-14.541l-57.4 56.266c-3.7 1.845-4.5 3.93-4.5 7.727z"/><path d="m14622.9 231.551-31 125.934c-.1 8.553-12.4 10.6-17.2 3.479l-100.7-154.149-2.2-3.419-1.9-2.904v-.085l-10.8-16.676c-3.3-5.48 2-11.717 9.8-8.041l149.6 48.135c.2.11.4.221.6.333 1.5.844 2.4 1.752 3 2.861.6 1.214.8 2.666.8 4.532z"/><path d="m15097.1 204.7-6.6-5.832 132.2-43.661c4.6-1.602 3.3-8.396-1.4-8.705l-223.6-6.278c-4.2-.144-12.5 6.182-12.9 7.329 2.5.884 10 .818 10 .818l81.8 52.294c1.5 1.601 13.2 5.425 20.5 4.035z"/><path d="m15091.4 223.617 15.9 136.791c1.3 7.772 9.5 7.511 14.2.39l109.7-180.347c3.3-5.48.1-14.967-7.6-11.29l-127.7 46.73c-3.7 1.845-4.5 3.929-4.5 7.726z"/><path d="m15076.6 228.154 19.3 133.2c-.1 6.414-8 5.466-13-1.202 0 0-84.6-141.242-85.2-142.931-.8-2.502.7-3.851.7-3.851l-4.1-11.23-2.1-.299-8.5-30.145c-1.7-7.321 3.9-11.752 9-9.604l78.6 49.991c.1.055-2.5 1.843-2.4 1.899.7.422 4.4 10.641 4.6 11.196.4.607 3.1 2.043 3.1 2.976z"/><path d="m15540.6 204.681-7.2-6.367 212.5-33.453c4.7-1.253 3.7-9.474-.8-10.121l-204.9-20.493c-3.5-.309-20.3-.945-22.9.872 2.3.864 13.9 6.554 13.9 6.554l-9.4 54.553c-.3 1.812 4.7 7.524 18.8 8.455z"/><path d="m15524.1 223.418 83.5 139.042c3 6.574 12.7 8.206 17.5 1.085l124.8-174.852c3.3-5.48-2-11.717-9.9-8.041l-211.4 35.04c-3.8 1.845-4.5 3.929-4.5 7.726z"/><path d="m15523.8 225.404 78.7 139.325c-.1 4.266-2.3.27-7.4-5.937 0 0-76.8-129.391-77.4-131.08-.9-2.502 1.4-3.871 1.4-3.871l-4.6-23.827-2.5-.57 10.9-47.871c.5-6.412 4.4-8.912 6.6-8.791l-11.6 55.659-3.4 1.596 4.6 23.765z"/><path d="m16036 205.162-5.2-7.054 226.6-31.764c4.8-1.169 3.9-9.461-.6-10.183l-198.7-22.826c-3.4-.345-12.9 2.228-19.6 2.874 4.1 1.541 11.6 3.536 11.6 3.536l-30.9 55.869c-.7 1.854 7.3 9.886 16.8 9.548z"/><path d="m16024.5 223.301 92.5 139.648c3.8 6.015 13.6 7.6 18.7.479l128.3-172.697c3.5-5.48-2-11.717-10.1-8.041l-224.8 32.885c-3.8 1.845-4.6 3.929-4.6 7.726z"/><path d="m16537.6 203.361c-1.3-1.864-5.5-8.67-5.5-8.67l239.1-24.058c5-.893 4.2-8.752-.3-9.595l-182.6-28.693c-3.1-.403-13.7 1.265-26.7 1.972 8.4 2.308 14.6 4.276 14.6 4.276l-55 52.857c-1.7 1.817 5.6 10.613 16.4 11.911z"/><path d="m16526.3 219.551 101.1 143.398c4.8 6.015 15.7 9.213 23.6.479l127-167.947c3.5-5.48-2.1-11.717-10.2-8.041l-236.9 24.385c-3.8 1.845-4.6 3.929-4.6 7.726z"/><path d="m17039.3 201.561c-2.7-3.73-6-10.286-6-10.286l251.8-16.353c5-.616 4.4-8.043 0-9.006l-166.7-34.561c-2.7-.46-14.4.302-33.6 1.07 12.6 3.075 17.5 5.016 17.5 5.016l-79.1 49.844c-2.7 1.781 3.9 11.34 16.1 14.276z"/><path d="m17028 215.801 109.8 147.148c5.8 6.015 17.9 10.826 28.6.479l125.6-163.197c3.5-5.48-2.1-11.717-10.3-8.041l-249 15.885c-3.9 1.845-4.7 3.929-4.7 7.726z"/><path d="m17541 199.76c-4.1-5.595-6.4-11.902-6.4-11.902l264.3-8.647c5.2-.34 4.7-7.335.3-8.418l-150.6-40.428c-2.4-.518-15.2-.662-40.6.168 16.8 3.842 20.5 5.755 20.5 5.755l-103.4 46.832c-3.6 1.745 2.3 12.067 15.9 16.64z"/><path d="m17529.8 212.051 118.4 150.898c6.8 6.015 20 12.438 33.5.479l124.2-158.447c3.6-5.48-2.1-11.717-10.4-8.041l-261 7.385c-3.9 1.845-4.7 3.929-4.7 7.726z"/><path d="m18042.7 197.959c-5.5-7.459-6.8-13.518-6.8-13.518l276.8-.941c5.3-.064 5-6.626.7-7.83l-134.7-46.295c-2-.576-15.9-1.625-47.6-.734 21.1 4.609 23.5 6.495 23.5 6.495l-127.5 43.82c-4.6 1.708.6 12.794 15.6 19.003z"/><path d="m18031.5 208.301 127.1 154.648c7.8 6.015 22.1 14.051 38.4.479l122.9-153.697c3.6-5.48-2.1-11.717-10.5-8.041l-273.1-1.115c-3.9 1.845-4.8 3.929-4.8 7.726z"/><path d="m18554.3 191.827c-3.7-6.727-3.3-11.812-3.3-11.812l263.9 7.106c5.5.227 5.3-6.097 1.8-7.655l-108.6-49.097c-1.8-1.08-13.7-2.469-42.7-1.967 19.3 4.348 20.1 6.329 20.1 6.329l-143 39.487c-4.7 1.863-.1 11.782 11.8 17.609z"/><path d="m18544.8 204.201 128.2 158.698c7 6.015 19.7 12.31 33.8.029l113.7-148.597c3.6-5.48-1.3-11.82-9.7-9.091l-261.2-8.765c-4 1.845-4.8 3.929-4.8 7.726z"/><path d="m19065.4 179.564c0-5.264 3.9-8.401 3.9-8.401l237.9 23.2c6.1.811 6.2-5.039 4.1-7.305l-56.5-54.699c-1.4-2.09-9.1-4.159-32.7-4.435 15.5 3.826 13.3 5.999 13.3 5.999l-174 30.821c-5.1 2.171-1.7 9.756 4 14.82z"/><path d="m19059.4 196 130.4 166.798c5.5 6.015 15 8.831 24.6-.871l95.4-138.397c3.5-5.48.2-12.025-8.4-11.191l-237.3-24.065c-3.9 1.845-4.7 3.929-4.7 7.726z"/><path d="m19577 173.432c1.9-4.532 7.4-6.695 7.4-6.695l224.9 31.247c6.4 1.103 6.6-4.51 5.3-7.13l-30.4-57.501c-1.2-2.594-6.8-5.003-27.8-5.668 13.7 3.565 10 5.833 10 5.833l-189.6 26.488c-5.3 2.326-2.4 8.744.2 13.426z"/><path d="m19572.7 191.901 131.6 170.848c4.6 6.015 12.6 7.09 19.9-1.321l86.2-133.297c3.5-5.48 1-12.128-7.7-12.241l-225.4-31.715c-3.8 1.845-4.6 3.929-4.6 7.726z"/><path d="m20088.6 167.301c3.6-3.801 10.9-4.989 10.9-4.989l211.9 39.293c6.7 1.395 7.1-3.98 6.5-6.955l-4.3-60.302c-1-3.098-4.6-5.848-22.9-6.902 11.8 3.304 6.6 5.668 6.6 5.668l-205.1 22.155c-5.5 2.481-3.2 7.731-3.6 12.032z"/><path d="m20085.9 187.801 132.8 174.898c3.8 6.015 10.2 5.35 15.3-1.771l77-128.197c3.5-5.48 1.8-12.231-6.9-13.291l-213.5-39.365c-3.8 1.845-4.7 3.929-4.7 7.726z"/><path d="m20310.2 232.265-76.2 132.217c.4.768 4-.107 6.3-3.508l73.4-126.964.8-3.459 2-34.688.8-.628-2.3-43.816c-1-3.662.4-7.037-1.7-7.416l1.8 52.161 1.4-.275-2 34.591z"/><path d="m20603.1 163.77c1.9-1.901 7.9-1.956 7.9-1.956l199.4 40.609c6.4 1.271 6.9-3.62 7-6.456l14.7-62.662c-1.4-1.867-2.6-4.728-12.8-4.787 6 1.652 1.9 2.989 1.9 2.989l-217.1 23.212c-4.9 2.182-3.1 6.845-1 9.051z"/><path d="m20597.5 187.281 131.1 175.331c3.7 6.015 10.2 5.202 15.3-1.919l68-127.644c3.1-5.559 1-12.139-7.4-13.241l-202.4-40.253c-3.8 1.845-4.6 3.929-4.6 7.726z"/><path d="m20815.7 232.149-70.3 131.388c.3 2.786 4.8.982 8.5-3.882 0 0 66.6-121.572 67.1-123.053.7-2.193-.6-5.307-.6-5.307l2.6-28.93 3.2-2.733 10.5-43.711c-.3-6.185-.9-9.563-3.2-9.453l-12.2 52.542 1.6 3.328-2.4 28.939z"/><path d="m21117.7 160.239 4.8 1.078 186.9 41.925c6.2 1.147 6.7-3.26 7.5-5.958l33.8-65.022c-2-.636-.7-3.608-2.7-2.672l-2.9.31-229.2 24.269c-4.3 1.884-2.8 5.96 1.8 6.07z"/><path d="m21109.1 186.761 129.3 175.764c3.8 6.015 10.4 5.055 15.3-2.066l59-127.091c2.9-5.637.2-12.048-7.8-13.191l-191.2-41.142c-3.8 1.845-4.6 3.929-4.6 7.726z"/><path d="m21321.2 232.033-64.3 130.56c.1 4.804 5.5 2.07 10.5-4.256 0 0 59.8-116.181 60.8-119.142 1.5-4.386-1.8-7.156-1.8-7.156l3-23.172 5.7-4.837 23.3-43.606c.4-8.708-2.1-12.089-4.7-11.49l-26.1 52.922 1.7 6.931-2.8 23.287z"/><path d="m21629.7 159.786 4.6 1.106 179 43.048c6.1 1.041 6.6-2.952 8-5.532l46.6-63.276c-1.9-.638-.5-3.779-2.5-2.84l-3 .27-234.5 21.138c-4.3 1.889-2.8 5.975 1.8 6.086z"/><path d="m21620.7 186.241 127.6 176.197c3.7 6.015 10.4 4.907 15.3-2.214l49.9-126.538c2.6-5.716-.6-11.956-8.2-13.141l-180.1-42.03c-3.7 1.845-4.5 3.929-4.5 7.726z"/><path d="m21826.4 229.723-56.3 131.965c.1 6.054 5.7 4.414 10.7-2.177 0 0 66.6-127.182 67.3-129.156 1-2.924-.7-6.027-.7-6.027l2.5-16.515 3.8-3.256 21.8-40.697c1.4-7.632.2-12.803-3.1-12.257l-40.6 55.426 1.1 4.671-2.4 16.795z"/><path d="m22141.6 159.332 4.4 1.136 171.1 44.171c6 .935 6.6-2.645 8.6-5.106l59.4-61.532c-1.9-.639-.4-3.948-2.3-3.008l-3.1.23-239.8 18.007c-4.4 1.894-2.9 5.992 1.7 6.102z"/><path d="m22132.3 185.721 125.8 176.63c3.7 6.015 10.5 4.76 15.4-2.361l40.9-125.985c2.3-5.795-1.4-11.865-8.7-13.091l-168.9-42.919c-3.8 1.845-4.5 3.929-4.5 7.726z"/><path d="m22331.7 227.411-48.3 133.371c.1 7.303 5.7 6.757 10.7-.099 0 0 73.6-138.183 73.9-139.17.5-1.462.5-4.896.5-4.896l1.9-9.859 1.9-1.674 20.4-37.789c2.4-6.556 2.4-13.517-1.5-13.024l-55.2 57.931.6 2.41-2.1 10.304z"/><path d="m22653.6 158.148 4 1.192 158.3 46.374c5.6.92 6.6-1.89 9.5-4.225l78.5-59.169c-.9-.852.2-4.806-2.2-3.889l-3.2.165-246.2 12.937c-4.6 1.703-3.6 6.18 1.3 6.615z"/><path d="m22643.8 184.738 123.4 177.906c3.7 6.015 10.9 4.369 15.1-2.541l27.9-125.527c1.8-6.029-2.2-11.399-8.8-12.751l-152.9-44.889c-3.8 1.322-5.2 3.64-4.7 7.802z"/><path d="m22831.7 226.199-35.3 133.819c.1 8.553 6.2 9.223 11.1 2.102l83.3-150.431 1.7-3.724 1.4-3.166.1-.092 17.9-32.658c3.3-5.48 3.8-13.924-1.2-13.089l-75.5 59.513c0 .014-.1.159-.1.173-.2.103-1.8 3.56-1.8 3.696-.1.148-1.6 3.63-1.6 3.857z"/><path d="m23165.5 157.275 4 1.225 152.3 47.665c5.1 1.028 6.6-1.356 9.9-3.682l86-58.43c.4-1.104.7-5.627-2.2-4.742l-3.1.136-247.4 10.618c-5.1 1.469-4.6 6.386.5 7.21z"/><path d="m23155.7 184.185 122.6 178.913c3.7 6.015 11.2 4.079 14.7-2.579l23.2-125.64c1.5-6.215-2.1-10.952-8.4-12.404l-147.2-46.184c-3.8.698-6 3.296-4.9 7.894z"/><path d="m23337.6 227.514-29.5 132.674c.2 8.553 6.7 9.369 11.6 2.248l86.5-151.922 1.8-3.674 1.5-3.122v-.091l16.8-30.001c3.3-5.48 2.8-13.557-2.6-12.25l-82.5 58.412c-.1.029-.2.169-.2.199-.4.226-1.9 3.26-2 3.557-.2.325-1.4 3.47-1.4 3.97z"/><path d="m23677.5 156.408 3.8 1.258 146.4 48.946c4.8 1.136 6.8-.826 10.4-3.143l93.5-57.698c1.6-1.354 1.1-6.441-2.3-5.587l-3.1.106-248.6 8.319c-5.5 1.238-5.4 6.591-.1 7.799z"/><path d="m23667.6 183.636 121.8 179.912c3.7 6.015 11.6 3.791 14.3-2.616l18.6-125.753c1.1-6.399-2.1-10.509-8-12.061l-141.5-47.467c-4 .079-6.8 2.954-5.2 7.985z"/><path d="m23843.4 228.816-23.5 131.539c.1 8.553 7 9.513 11.9 2.392l89.8-153.4 1.8-3.623 1.6-3.079.1-.09 15.5-27.367c3.4-5.48 1.9-13.193-4-11.418l-89.4 57.319c0 .046-.2.18-.3.226-.6.348-1.9 2.962-2.2 3.42-.2.501-1.3 3.311-1.3 4.081z"/><path d="m24189.5 155.607 3.6 1.289 141 50.131c4.4 1.235 6.8-.337 10.8-2.644l100.4-57.02c2.7-1.586 1.5-7.195-2.3-6.371l-3.2.079-249.6 6.191c-5.9 1.024-6.3 6.781-.7 8.345z"/><path d="m24179.5 183.129 121 180.837c3.7 6.015 12 3.525 14-2.651l14.3-125.857c.9-6.57-2-10.099-7.6-11.742l-136.2-48.655c-4.1-.495-7.6 2.637-5.5 8.068z"/><path d="m24349.8 230.022-18.2 130.489c.2 8.553 7.5 9.647 12.3 2.526l92.8-154.769 1.9-3.576 1.7-3.04v-.088l14.5-24.928c3.3-5.48 1-12.857-5.3-10.648l-95.8 56.308c-.1.06-.2.189-.3.25-.9.461-2.1 2.686-2.4 3.293-.4.663-1.2 3.163-1.2 4.183z"/><path d="m24701.5 154.895 3.5 1.316 136.1 51.184c4.1 1.323 6.9.098 11.2-2.201l106.5-56.419c3.7-1.792 1.9-7.864-2.3-7.065l-3.2.055-250.6 4.3c-6.2.833-7 6.95-1.2 8.83z"/><path d="m24691.5 182.677 120.3 181.659c3.7 6.015 12.2 3.288 13.7-2.683l10.5-125.948c.6-6.723-2.1-9.735-7.3-11.46l-131.6-49.71c-4.1-1.004-8.2 2.356-5.6 8.142z"/><path d="m24856.7 231.093-13.3 129.555c.2 8.553 7.8 9.767 12.7 2.646l95.4-155.985 2-3.535 1.7-3.004v-.087l13.5-22.763c3.4-5.48.3-12.557-6.4-9.963l-101.5 55.409c-.1.073-.3.198-.4.272-1 .562-2.2 2.441-2.6 3.18-.4.808-1.1 3.033-1.1 4.275z"/><path d="m25213.5 154.285 3.3 1.339 132 52.085c3.8 1.4 7 .472 11.5-1.821l111.8-55.903c4.6-1.968 2.2-8.437-2.3-7.661l-3.2.034-251.5 2.682c-6.5.67-7.6 7.094-1.6 9.245z"/><path d="m25203.4 182.291 119.7 182.362c3.7 6.015 12.5 3.086 13.5-2.709l7.2-126.028c.4-6.852-2-9.422-7-11.218l-127.6-50.613c-4.2-1.44-8.8 2.116-5.8 8.206z"/><path d="m25364.4 232.01-9.1 128.756c.1 8.553 8 9.869 12.9 2.748l97.6-157.026 2.1-3.499 1.8-2.974v-.086l12.7-20.908c3.3-5.48-.4-12.301-7.5-9.377l-106.3 54.639c-.1.085-.3.205-.5.291-1.1.648-2.2 2.232-2.7 3.083-.4.932-1 2.921-1 4.353z"/><path d="m25725.4 153.784 3.3 1.358 128.6 52.826c3.6 1.462 7.1.778 11.8-1.509l116-55.479c5.4-2.113 2.5-8.909-2.2-8.151l-3.3.017-252.1 1.351c-6.7.536-8.2 7.213-2.1 9.587z"/><path d="m25715.4 181.974 119.2 182.94c3.7 6.015 12.7 2.919 13.2-2.731l4.5-126.092c.3-6.96-1.9-9.167-6.7-11.02l-124.3-51.356c-4.2-1.798-9.3 1.918-5.9 8.259z"/><path d="m25872.9 232.765-5.8 128.098c.1 8.553 8.3 9.953 13.1 2.832l99.6-157.881 2.1-3.47 1.8-2.949.1-.086 12-19.383c3.3-5.48-1-12.091-8.3-8.896l-110.3 54.008c-.2.093-.4.21-.5.305-1.3.719-2.4 2.06-2.9 3.004-.5 1.033-.9 2.829-.9 4.418z"/><path d="m26237.4 153.116 3.2 1.383 124 53.815c3.3 1.544 7.2 1.186 12.1-1.094l121.9-54.914c6.2-2.306 2.8-9.537-2.3-8.803l-3.3-.005-253-.424c-7.1.357-8.9 7.371-2.6 10.042z"/><path d="m26227.3 181.55 118.6 183.712c3.7 6.015 13 2.696 12.9-2.761l1-126.179c0-7.102-2-8.824-6.5-10.754l-119.8-52.347c-4.4-2.275-10 1.655-6.2 8.329z"/><path d="m26380.2 233.77-1.3 127.223c.2 8.553 8.6 10.064 13.5 2.943l102-159.022 2.2-3.431 1.8-2.916.1-.084 11.1-17.35c3.3-5.48-1.7-11.81-9.4-8.254l-115.6 53.164c-.2.106-.4.219-.6.327-1.5.812-2.4 1.829-3 2.897-.6 1.169-.8 2.706-.8 4.503z"/><path d="m26749.4 152.949 3.2 1.39 122.9 54.061c3.2 1.565 7.1 1.288 12.1-.991l123.3-54.773c6.5-2.354 3-9.693-2.3-8.965l-3.2-.011-253.3-.865c-7.1.313-9.1 7.41-2.7 10.154z"/><path d="m26739.3 181.445 118.4 183.903c3.7 6.015 13.1 2.642 12.9-2.767v-126.201c0-7.137-1.9-8.739-6.4-10.688l-118.7-52.593c-4.4-2.395-10.1 1.588-6.2 8.346z"/><path d="m26891 234.02-.1 127.005c.1 8.553 8.6 10.092 13.5 2.971l102.7-159.306 2.2-3.421 1.8-2.908.1-.084 10.8-16.844c3.4-5.48-1.9-11.741-9.6-8.094l-116.9 52.954c-.3.109-.5.22-.7.331-1.5.837-2.4 1.772-3 2.871-.6 1.203-.8 2.676-.8 4.525z"/><path d="m27261.4 152.894 3.2 1.392 122.5 54.142c3.1 1.572 7.1 1.322 12.2-.956l123.7-54.727c6.6-2.37 3-9.745-2.3-9.019l-3.2-.013-253.4-1.011c-7.1.298-9.1 7.423-2.7 10.192z"/><path d="m27251.3 181.41 118.4 183.967c3.7 6.015 13 2.623 12.8-2.77l-.2-126.208c-.1-7.149-2-8.711-6.4-10.666l-118.4-52.675c-4.4-2.434-10.1 1.567-6.2 8.352z"/><path d="m27402.6 234.103.3 126.933c.1 8.553 8.6 10.101 13.5 2.98l102.9-159.4 2.2-3.418 1.9-2.905v-.084l10.8-16.677c3.3-5.48-2-11.717-9.8-8.041l-117.3 52.885c-.2.11-.5.221-.7.333-1.5.844-2.4 1.753-3 2.862-.6 1.214-.8 2.666-.8 4.532z"/><path d="m27773.4 152.894 3.2 1.392 122.5 54.142c3.1 1.572 7.1 1.322 12.2-.956l123.7-54.727c6.6-2.37 3-9.745-2.3-9.019l-3.2-.013-253.4-1.011c-7.1.298-9.1 7.423-2.7 10.192z"/><path d="m27763.3 181.41 118.4 183.967c3.7 6.015 13 2.623 12.8-2.77l-.2-126.208c-.1-7.149-2-8.711-6.4-10.666l-118.4-52.675c-4.4-2.434-10.1 1.567-6.2 8.352z"/><path d="m27914.6 234.103.3 126.933c.1 8.553 8.6 10.101 13.5 2.98l102.9-159.4 2.2-3.418 1.9-2.905v-.084l10.8-16.677c3.3-5.48-2-11.717-9.8-8.041l-117.3 52.885c-.2.11-.5.221-.7.333-1.5.844-2.4 1.753-3 2.862-.6 1.214-.8 2.666-.8 4.532z"/><path d="m28285.4 152.894 3.2 1.392 122.5 54.142c3.1 1.572 7.1 1.322 12.2-.956l123.7-54.727c6.6-2.37 3-9.745-2.3-9.019l-3.2-.013-253.4-1.011c-7.1.298-9.1 7.423-2.7 10.192z"/><path d="m28275.3 181.41 118.4 183.967c3.7 6.015 13 2.623 12.8-2.77l-.2-126.208c-.1-7.149-2-8.711-6.4-10.666l-118.4-52.675c-4.4-2.434-10.1 1.567-6.2 8.352z"/><path d="m28426.6 234.103.3 126.933c.1 8.553 8.6 10.101 13.5 2.98l102.9-159.4 2.2-3.418 1.9-2.905v-.084l10.8-16.677c3.3-5.48-2-11.717-9.8-8.041l-117.3 52.885c-.2.11-.5.221-.7.333-1.5.844-2.4 1.753-3 2.862-.6 1.214-.8 2.666-.8 4.532z"/><path d="m28797.4 152.894 3.2 1.392 122.5 54.142c3.1 1.572 7.1 1.322 12.2-.956l123.7-54.727c6.6-2.37 3-9.745-2.3-9.019l-3.2-.013-253.4-1.011c-7.1.298-9.1 7.423-2.7 10.192z"/><path d="m28787.3 181.41 118.4 183.967c3.7 6.015 13 2.623 12.8-2.77l-.2-126.208c-.1-7.149-2-8.711-6.4-10.666l-118.4-52.675c-4.4-2.434-10.1 1.567-6.2 8.352z"/><path d="m28938.6 234.103.3 126.933c.1 8.553 8.6 10.101 13.5 2.98l102.9-159.4 2.2-3.418 1.9-2.905v-.084l10.8-16.677c3.3-5.48-2-11.717-9.8-8.041l-117.3 52.885c-.2.11-.5.221-.7.333-1.5.844-2.4 1.753-3 2.862-.6 1.214-.8 2.666-.8 4.532z"/><path d="m29309.4 152.894 3.2 1.392 122.5 54.142c3.1 1.572 7.1 1.322 12.2-.956l123.7-54.727c6.6-2.37 3-9.745-2.3-9.019l-3.2-.013-253.4-1.011c-7.1.298-9.1 7.423-2.7 10.192z"/><path d="m29299.3 181.41 118.4 183.967c3.7 6.015 13 2.623 12.8-2.77l-.2-126.208c-.1-7.149-2-8.711-6.4-10.666l-118.4-52.675c-4.4-2.434-10.1 1.567-6.2 8.352z"/><path d="m29450.6 234.103.3 126.933c.1 8.553 8.6 10.101 13.5 2.98l102.9-159.4 2.2-3.418 1.9-2.905v-.084l10.8-16.677c3.3-5.48-2-11.717-9.8-8.041l-117.3 52.885c-.2.11-.5.221-.7.333-1.5.844-2.4 1.753-3 2.862-.6 1.214-.8 2.666-.8 4.532z"/><path d="m29821.4 152.894 3.2 1.392 122.5 54.142c3.1 1.572 7.1 1.322 12.2-.956l123.7-54.727c6.6-2.37 3-9.745-2.3-9.019l-3.2-.013-253.4-1.011c-7.1.298-9.1 7.423-2.7 10.192z"/><path d="m29811.3 181.41 118.4 183.967c3.7 6.015 13 2.623 12.8-2.77l-.2-126.208c-.1-7.149-2-8.711-6.4-10.666l-118.4-52.675c-4.4-2.434-10.1 1.567-6.2 8.352z"/><path d="m29962.6 234.103.3 126.933c.1 8.553 8.6 10.101 13.5 2.98l102.9-159.4 2.2-3.418 1.9-2.905v-.084l10.8-16.677c3.3-5.48-2-11.717-9.8-8.041l-117.3 52.885c-.2.11-.5.221-.7.333-1.5.844-2.4 1.753-3 2.862-.6 1.214-.8 2.666-.8 4.532z"/><path d="m30333.4 152.894 3.2 1.392 122.5 54.142c3.1 1.572 7.1 1.322 12.2-.956l123.7-54.727c6.6-2.37 3-9.745-2.3-9.019l-3.2-.013-253.4-1.011c-7.1.298-9.1 7.423-2.7 10.192z"/><path d="m30323.3 181.41 118.4 183.967c3.7 6.015 13 2.623 12.8-2.77l-.2-126.208c-.1-7.149-2-8.711-6.4-10.666l-118.4-52.675c-4.4-2.434-10.1 1.567-6.2 8.352z"/><path d="m30474.6 234.103.3 126.933c.1 8.553 8.6 10.101 13.5 2.98l102.9-159.4 2.2-3.418 1.9-2.905v-.084l10.8-16.677c3.3-5.48-2-11.717-9.8-8.041l-117.3 52.885c-.2.11-.5.221-.7.333-1.5.844-2.4 1.753-3 2.862-.6 1.214-.8 2.666-.8 4.532z"/></g></svg>